<svg width="48" height="48" viewBox="0 0 48 48" fill="none" xmlns="http://www.w3.org/2000/svg">
<path d="M34.977 7.32031H32.9689V30.4163H14.9609V32.3123C14.9609 34.0883 16.6889 35.5123 18.8169 35.5123H38.8169V10.5283C38.8329 8.7523 37.105 7.32031 34.977 7.32031Z" fill="#5AD6A0"/>
<path d="M32.9727 7.32021V5.4002C32.9727 3.6242 31.2447 2.2002 29.1167 2.2002H8.80469V27.8482C8.80469 29.6242 10.5326 30.4242 12.6606 30.4242H14.9646V7.32021H32.9727Z" fill="#A065FE"/>
<path d="M32.9689 7.32031H14.9609V30.4163H32.9689V7.32031Z" fill="#7D47E5"/>
<path d="M23.8213 26.7122C23.7072 26.7106 23.5982 26.6647 23.5173 26.5842L20.5813 23.4562C20.5041 23.377 20.4609 23.2708 20.4609 23.1602C20.4609 23.0496 20.5041 22.9434 20.5813 22.8642C20.6195 22.824 20.6654 22.792 20.7163 22.7701C20.7671 22.7483 20.822 22.737 20.8773 22.737C20.9327 22.737 20.9875 22.7483 21.0384 22.7701C21.0893 22.792 21.1352 22.824 21.1733 22.8642L23.7974 25.6562L29.0133 20.1122C29.0897 20.0316 29.195 19.9846 29.3061 19.9816C29.4171 19.9786 29.5247 20.0198 29.6054 20.0962C29.686 20.1726 29.7329 20.2779 29.7359 20.3889C29.7389 20.4999 29.6977 20.6076 29.6213 20.6882L24.1014 26.5602C24.0303 26.6441 23.9304 26.6983 23.8213 26.7122V26.7122Z" fill="white"/>
</svg>
