<svg width="49" height="48" viewBox="0 0 49 48" fill="none" xmlns="http://www.w3.org/2000/svg">
<path d="M25.3623 13.8821V8.14832H7.79198C7.50266 8.14832 7.21618 8.2049 6.94898 8.31482C6.68178 8.42474 6.43911 8.58584 6.23488 8.78887C6.03066 8.9919 5.8689 9.23288 5.75888 9.49798C5.64886 9.76308 5.59275 10.0471 5.59376 10.3337V26.6671C5.59376 26.7204 5.59376 26.7737 5.59376 26.8346V32.9872C5.59657 33.1273 5.63836 33.264 5.71452 33.3821C5.79068 33.5002 5.89826 33.5952 6.02541 33.6566C6.15257 33.718 6.29436 33.7434 6.43518 33.7301C6.576 33.7168 6.71039 33.6653 6.82353 33.5812L12.9724 28.8449H31.8032C32.0945 28.8489 32.3837 28.7956 32.6539 28.6879C32.9242 28.5803 33.1701 28.4205 33.3775 28.2179C33.5849 28.0153 33.7496 27.7738 33.862 27.5076C33.9744 27.2414 34.0322 26.9557 34.0322 26.6671V15.0776H26.5767C26.4176 15.0786 26.2599 15.0485 26.1126 14.9888C25.9653 14.9292 25.8313 14.8413 25.7185 14.7302C25.6056 14.6191 25.516 14.4869 25.4549 14.3414C25.3938 14.1959 25.3623 14.0398 25.3623 13.8821V13.8821Z" fill="#FFDD7F"/>
<path d="M41.5693 2.40061H26.5661C26.246 2.40061 25.9391 2.52656 25.7128 2.75076C25.4865 2.97496 25.3594 3.27904 25.3594 3.5961V8.16488H31.8234C32.112 8.16388 32.3981 8.21922 32.6652 8.32774C32.9323 8.43625 33.1751 8.59583 33.38 8.79735C33.5848 8.99887 33.7476 9.23838 33.859 9.50222C33.9704 9.76606 34.0282 10.0491 34.0293 10.335V15.079H37.4265L41.9843 18.5817C42.0534 18.6386 42.1374 18.6746 42.2266 18.6856C42.3157 18.6965 42.4061 18.6818 42.4871 18.6433C42.568 18.6048 42.6361 18.5441 42.6832 18.4684C42.7304 18.3927 42.7546 18.3051 42.7529 18.2162V14.188C42.7838 14.0894 42.7993 13.9867 42.7991 13.8835V3.5961C42.7991 3.43717 42.7671 3.27982 42.705 3.13327C42.643 2.98672 42.552 2.8539 42.4375 2.74258C42.323 2.63127 42.1872 2.54369 42.0382 2.48497C41.8891 2.42625 41.7297 2.39757 41.5693 2.40061V2.40061Z" fill="#A065FE"/>
<path d="M31.8234 8.14845H25.3594V13.8823C25.3594 14.1993 25.4865 14.5034 25.7128 14.7276C25.9391 14.9518 26.246 15.0778 26.5661 15.0778H34.0293V10.3338C34.0303 10.0466 33.9739 9.76194 33.8634 9.49634C33.7529 9.23074 33.5905 8.98943 33.3854 8.7863C33.1804 8.58316 32.9368 8.42222 32.6687 8.31275C32.4006 8.20328 32.1133 8.14744 31.8234 8.14845V8.14845Z" fill="#7D47E5"/>
<path d="M17.6828 20.7286H15.6845C15.0056 20.7286 14.3546 20.4614 13.8746 19.9859C13.3947 19.5104 13.125 18.8654 13.125 18.1929C13.125 17.5204 13.3947 16.8754 13.8746 16.3999C14.3546 15.9244 15.0056 15.6572 15.6845 15.6572H18.3438C19.022 15.6592 19.6719 15.927 20.1514 16.4021C20.631 16.8772 20.9013 17.521 20.9033 18.1929C20.9013 18.2892 20.8618 18.3811 20.7931 18.4492C20.7243 18.5173 20.6316 18.5565 20.5344 18.5584C20.4365 18.5584 20.3427 18.5199 20.2735 18.4513C20.2043 18.3828 20.1654 18.2898 20.1654 18.1929C20.1654 17.7143 19.9735 17.2552 19.6319 16.9168C19.2903 16.5784 18.827 16.3882 18.3438 16.3882H15.6845C15.2013 16.3882 14.738 16.5784 14.3964 16.9168C14.0548 17.2552 13.8629 17.7143 13.8629 18.1929C13.8629 18.6715 14.0548 19.1305 14.3964 19.469C14.738 19.8074 15.2013 19.9976 15.6845 19.9976H17.6828C17.7807 19.9976 17.8745 20.0361 17.9437 20.1046C18.0129 20.1732 18.0518 20.2661 18.0518 20.3631C18.0498 20.4594 18.0103 20.5512 17.9415 20.6194C17.8728 20.6875 17.7801 20.7266 17.6828 20.7286V20.7286Z" fill="#FFBE0C"/>
<path d="M24.2266 22.1969H21.5673C20.8891 22.1949 20.2393 21.9271 19.7597 21.452C19.2801 20.9769 19.0098 20.3331 19.0078 19.6612C19.0078 19.5643 19.0467 19.4713 19.1159 19.4028C19.1851 19.3342 19.2789 19.2957 19.3767 19.2957C19.4255 19.2947 19.4739 19.3034 19.5192 19.3214C19.5644 19.3394 19.6055 19.3663 19.64 19.4005C19.6744 19.4346 19.7016 19.4753 19.7197 19.5202C19.7379 19.565 19.7467 19.613 19.7457 19.6612C19.7477 20.1393 19.9403 20.5971 20.2814 20.9351C20.6226 21.2731 21.0848 21.4639 21.5673 21.4659H24.2266C24.7098 21.4659 25.1731 21.2758 25.5147 20.9373C25.8563 20.5989 26.0482 20.1399 26.0482 19.6612C26.0482 19.1826 25.8563 18.7236 25.5147 18.3852C25.1731 18.0467 24.7098 17.8566 24.2266 17.8566H22.2821C22.1842 17.8566 22.0904 17.8181 22.0212 17.7495C21.952 17.681 21.9131 17.588 21.9131 17.4911C21.9121 17.4428 21.9209 17.3948 21.9391 17.35C21.9573 17.3052 21.9844 17.2645 22.0189 17.2303C22.0533 17.1962 22.0944 17.1693 22.1397 17.1513C22.1849 17.1333 22.2333 17.1245 22.2821 17.1256H24.2266C24.9055 17.1256 25.5565 17.3927 26.0365 17.8683C26.5165 18.3438 26.7861 18.9887 26.7861 19.6612C26.7861 20.3337 26.5165 20.9787 26.0365 21.4542C25.5565 21.9298 24.9055 22.1969 24.2266 22.1969V22.1969Z" fill="#FFBE0C"/>
</svg>
