<svg width="48" height="48" viewBox="0 0 48 48" fill="none" xmlns="http://www.w3.org/2000/svg">
<path d="M19.8767 12.156C19.8767 10.4987 20.2168 8.85911 20.8759 7.33857C21.535 5.81803 22.4992 4.44895 23.7087 3.31602C21.9814 1.686 19.8145 0.597509 17.4756 0.184911C15.1367 -0.227686 12.7282 0.0536568 10.5474 0.994238C8.36655 1.93482 6.50891 3.49345 5.20377 5.47771C3.89862 7.46197 3.20313 9.785 3.20312 12.16C3.20313 14.535 3.89862 16.858 5.20377 18.8423C6.50891 20.8265 8.36655 22.3852 10.5474 23.3258C12.7282 24.2663 15.1367 24.5477 17.4756 24.1351C19.8145 23.7225 21.9814 22.634 23.7087 21.004C22.4997 19.869 21.536 18.4983 20.877 16.9766C20.2179 15.4549 19.8775 13.8143 19.8767 12.156Z" fill="#FFDD7F"/>
<path d="M32.0389 0.0023572C28.94 0.000607515 25.9587 1.18909 23.7109 3.32235C24.9207 4.45597 25.8851 5.82576 26.5443 7.34696C27.2036 8.86817 27.5437 10.5084 27.5437 12.1663C27.5437 13.8243 27.2036 15.4646 26.5443 16.9858C25.8851 18.507 24.9207 19.8767 23.7109 21.0104C25.1554 22.3721 26.9113 23.3595 28.8252 23.8863C30.7392 24.4131 32.753 24.4634 34.6908 24.0326C36.6287 23.6019 38.4316 22.7033 39.9421 21.4153C41.4527 20.1272 42.6249 18.489 43.3565 16.6435C44.088 14.7981 44.3567 12.8017 44.1389 10.8285C43.9212 8.85537 43.2237 6.96553 42.1073 5.32404C40.9909 3.68255 39.4897 2.33933 37.7346 1.41168C35.9795 0.48404 34.0241 0.000175386 32.0389 0.0023572Z" fill="#5AD6A0"/>
<path d="M27.5398 12.1564C27.5398 10.4991 27.1997 8.85951 26.5406 7.33896C25.8815 5.81842 24.9173 4.44934 23.7078 3.31641C22.498 4.45003 21.5337 5.81979 20.8744 7.34099C20.2151 8.8622 19.875 10.5025 19.875 12.1604C19.875 13.8183 20.2151 15.4586 20.8744 16.9798C21.5337 18.501 22.498 19.8708 23.7078 21.0044C24.9168 19.8694 25.8805 18.4987 26.5396 16.977C27.1986 15.4553 27.539 13.8147 27.5398 12.1564Z" fill="#06C16E"/>
</svg>
