<svg width="48" height="48" viewBox="0 0 48 48" fill="none" xmlns="http://www.w3.org/2000/svg">
<g clip-path="url(#clip0_9000_23386)">
<path d="M24.0002 35.28C33.5437 35.28 41.2802 27.5435 41.2802 18C41.2802 8.45652 33.5437 0.720001 24.0002 0.720001C14.4567 0.720001 6.72021 8.45652 6.72021 18C6.72021 27.5435 14.4567 35.28 24.0002 35.28Z" fill="#CDF3E2"/>
<mask id="mask0_9000_23386" style="mask-type:alpha" maskUnits="userSpaceOnUse" x="6" y="0" width="36" height="36">
<path d="M24.0002 35.28C33.5437 35.28 41.2802 27.5435 41.2802 18C41.2802 8.45652 33.5437 0.720001 24.0002 0.720001C14.4567 0.720001 6.72021 8.45652 6.72021 18C6.72021 27.5435 14.4567 35.28 24.0002 35.28Z" fill="#FEEEC1"/>
</mask>
<g mask="url(#mask0_9000_23386)">
<path d="M6.72021 18.48H41.2802" stroke="#5AD6A0" stroke-width="0.48"/>
<path d="M24 0.720001V35.28" stroke="#5AD6A0" stroke-width="0.48"/>
<path d="M8.87988 6.48001C13.9999 9.52 27.2159 13.776 39.1199 6.48001" stroke="#5AD6A0" stroke-width="0.48"/>
<path d="M39.3601 30.1885C34.2401 27.1485 21.0241 22.8925 9.12012 30.1885" stroke="#5AD6A0" stroke-width="0.48"/>
<path d="M23.6548 0.171692C18.0991 6.75854 10.4589 23.2269 24.3441 36.4051" stroke="#5AD6A0" stroke-width="0.48"/>
<path d="M23.7822 36.4334C29.5398 30.0222 37.6875 13.7991 24.2182 0.196014" stroke="#5AD6A0" stroke-width="0.48"/>
</g>
<path fill-rule="evenodd" clip-rule="evenodd" d="M41.2786 18.2384C41.2797 18.1585 41.2802 18.0785 41.2802 17.9984C41.2802 8.53498 33.6731 0.848401 24.2402 0.720001V18.2384H41.2786Z" fill="#CDF3E2"/>
<path d="M34.3199 15.6C38.694 15.6 42.2399 12.0541 42.2399 7.68001C42.2399 3.30591 38.694 -0.23999 34.3199 -0.23999C29.9458 -0.23999 26.3999 3.30591 26.3999 7.68001C26.3999 12.0541 29.9458 15.6 34.3199 15.6Z" fill="#5AD6A0"/>
<path fill-rule="evenodd" clip-rule="evenodd" d="M40.4507 12.6944C38.9982 14.4681 36.7912 15.6 34.3199 15.6C29.9458 15.6 26.3999 12.0541 26.3999 7.68C26.3999 5.20819 27.5322 3.00086 29.3065 1.54843C34.5827 3.24922 38.7507 7.41787 40.4507 12.6944Z" fill="#06C16E"/>
<path d="M34.7348 12.9938C34.6757 12.9933 34.6176 12.9779 34.5654 12.95C34.5136 12.922 34.4693 12.8819 34.436 12.8333L31.7538 8.95565C31.6999 8.87486 31.6793 8.77665 31.6973 8.68109C31.7147 8.58605 31.7691 8.50157 31.8483 8.4456C31.9275 8.39227 32.0251 8.37221 32.1191 8.38963C32.2131 8.40758 32.2965 8.46144 32.3509 8.54011C32.5653 8.88859 32.889 9.15629 33.2712 9.30096C33.654 9.44616 34.0733 9.46041 34.465 9.34214C34.7512 9.27456 35.0078 9.11563 35.1958 8.88912C35.3843 8.66313 35.4936 8.38171 35.5078 8.08814V4.44336C35.5068 4.39584 35.5152 4.34832 35.5327 4.30344C35.5501 4.25909 35.5759 4.21843 35.6092 4.18358C35.6425 4.14926 35.6821 4.12181 35.7259 4.10227C35.7697 4.08326 35.8167 4.0727 35.8648 4.07217C36.0591 4.08485 36.2154 4.23533 36.2365 4.4291V8.07336C36.2296 8.53272 36.0728 8.97729 35.7898 9.33897C35.5068 9.70065 35.1134 9.96043 34.6694 10.0776C34.2686 10.2049 33.8425 10.2276 33.4307 10.1436L35.0263 12.4325C35.0807 12.5123 35.1023 12.6105 35.086 12.7055C35.0696 12.8005 35.0168 12.8861 34.9392 12.9431C34.8769 12.979 34.8061 12.9964 34.7348 12.9938Z" fill="white"/>
<path d="M37.4539 4.71318H32.0456C31.9484 4.71318 31.856 4.67516 31.7874 4.60652C31.7192 4.53841 31.6807 4.44548 31.6807 4.34886C31.6807 4.25223 31.7192 4.15931 31.7874 4.09119C31.856 4.02255 31.9484 3.98401 32.0456 3.98401H37.4539C37.5505 3.98401 37.6434 4.02255 37.7115 4.09119C37.7802 4.15931 37.8182 4.25223 37.8182 4.34886C37.8182 4.44548 37.7802 4.53841 37.7115 4.60652C37.6434 4.67516 37.5505 4.71318 37.4539 4.71318ZM37.4539 7.16257H32.0456C31.9975 7.1631 31.95 7.15359 31.9056 7.13511C31.8613 7.11663 31.8212 7.09023 31.7874 7.05591C31.753 7.02212 31.7261 6.98199 31.7082 6.93764C31.6897 6.89329 31.6802 6.84577 31.6802 6.79772C31.6823 6.70163 31.7214 6.61028 31.7895 6.54217C31.8576 6.47406 31.9489 6.43551 32.0456 6.4334H37.4539C37.5505 6.4334 37.6429 6.47195 37.7115 6.54059C37.7796 6.6087 37.8182 6.7011 37.8182 6.79772C37.8182 6.89435 37.7796 6.98727 37.7115 7.05539C37.6429 7.12403 37.5505 7.16257 37.4539 7.16257Z" fill="white"/>
</g>
<defs>
<clipPath id="clip0_9000_23386">
<rect width="48" height="48" fill="white"/>
</clipPath>
</defs>
</svg>
