<svg width="48" height="48" viewBox="0 0 48 48" fill="none" xmlns="http://www.w3.org/2000/svg">
<g clip-path="url(#clip0_7801_24071)">
<path d="M39.2848 21.3469C37.5109 19.573 35.2508 18.365 32.7903 17.8756C30.3299 17.3862 27.7795 17.6374 25.4618 18.5974C23.1441 19.5574 21.1632 21.1832 19.7694 23.2691C18.3757 25.3549 17.6318 27.8073 17.6318 30.3159C17.6318 32.8246 18.3757 35.2769 19.7694 37.3628C21.1632 39.4487 23.1441 41.0745 25.4618 42.0345C27.7795 42.9945 30.3299 43.2457 32.7903 42.7563C35.2508 42.2669 37.5109 41.0588 39.2848 39.285C40.4664 38.1093 41.404 36.7116 42.0439 35.1725C42.6837 33.6333 43.013 31.9828 43.013 30.3159C43.013 28.6491 42.6837 26.9986 42.0439 25.4594C41.404 23.9202 40.4664 22.5226 39.2848 21.3469Z" fill="#5ACE98"/>
<path d="M25.653 7.71501C23.6078 5.66742 20.9242 4.38031 18.0471 4.06709C15.1701 3.75387 12.2724 4.43334 9.83448 5.99286C7.39657 7.55238 5.56487 9.89827 4.64308 12.6416C3.72129 15.3849 3.76476 18.3609 4.7663 21.0761C5.76784 23.7913 7.66729 26.0827 10.1497 27.5704C12.6321 29.058 15.5485 29.6525 18.4151 29.2554C21.2818 28.8583 23.9266 27.4933 25.9112 25.3868C27.8957 23.2804 29.1007 20.5589 29.3264 17.6737C29.4697 15.8469 29.2156 14.0108 28.5815 12.2916C27.9474 10.5725 26.9483 9.01111 25.653 7.71501Z" fill="#9865F6"/>
<path d="M29.3264 17.6737C29.5293 15.0883 28.9349 12.5028 27.6232 10.2656C26.3115 8.02836 24.3455 6.24699 21.9903 5.16149C19.635 4.07599 17.0036 3.73852 14.4506 4.19456C11.8977 4.65061 9.54584 5.87824 7.71205 7.71204C5.87827 9.54584 4.65065 11.8977 4.19463 14.4506C3.7386 17.0036 4.07609 19.635 5.16161 21.9903C6.24712 24.3455 8.0285 26.3115 10.2657 27.6232C12.5029 28.9348 15.0884 29.5292 17.6738 29.3263C17.9075 26.3136 19.2102 23.4836 21.3469 21.3468C23.4836 19.2101 26.3136 17.9074 29.3264 17.6737Z" fill="#9865F6"/>
<path d="M39.2848 21.3469C37.99 20.05 36.4288 19.0498 34.7094 18.4155C32.9899 17.7813 31.1532 17.5282 29.3263 17.6737C29.0925 20.6863 27.7897 23.5162 25.6531 25.6529C23.5164 27.7896 20.6865 29.0924 17.6738 29.3263C17.5078 31.4474 17.8781 33.5763 18.7506 35.5168C19.6231 37.4573 20.9698 39.1472 22.6667 40.4307C24.3635 41.7143 26.3561 42.5503 28.4608 42.8619C30.5655 43.1734 32.7148 42.9504 34.7107 42.2135C36.7067 41.4765 38.4851 40.2493 39.8824 38.6447C41.2796 37.0401 42.2507 35.1098 42.7063 33.0315C43.1619 30.9532 43.0873 28.7937 42.4893 26.7518C41.8914 24.7099 40.7894 22.8512 39.2848 21.3469Z" fill="#5ACE98"/>
<path d="M29.3263 17.6737C26.3136 17.9074 23.4836 19.2101 21.3469 21.3468C19.2102 23.4836 17.9075 26.3136 17.6738 29.3263C20.6865 29.0924 23.5164 27.7896 25.6531 25.6529C27.7897 23.5162 29.0925 20.6863 29.3263 17.6737Z" fill="#7D47DD"/>
<path d="M30.532 31.2257C29.7909 31.0531 29.0979 30.7166 28.5039 30.2411C28.3001 30.061 28.1379 29.8389 28.0283 29.59C27.9187 29.3411 27.8644 29.0715 27.869 28.7996C27.8644 28.4901 27.9321 28.1838 28.0668 27.9051C28.2015 27.6264 28.3994 27.3831 28.6448 27.1944C29.2212 26.7516 29.9356 26.5268 30.6618 26.5596C31.1834 26.5503 31.7001 26.6623 32.171 26.887C32.5911 27.0858 32.9469 27.3985 33.1981 27.7896C33.3208 27.9823 33.4147 28.1919 33.4766 28.4118C33.4955 28.4878 33.4967 28.5671 33.4801 28.6437C33.4636 28.7203 33.4297 28.792 33.3811 28.8534C33.3325 28.9149 33.2704 28.9643 33.1997 28.998C33.129 29.0317 33.0515 29.0488 32.9732 29.0478H32.9565C32.8368 29.0505 32.7198 29.0122 32.6248 28.9393C32.5298 28.8664 32.4626 28.7632 32.4343 28.6469C32.3776 28.3483 32.2246 28.0764 31.9988 27.8729C31.6227 27.5674 31.1454 27.4148 30.6618 27.4454C30.2173 27.4188 29.7769 27.5433 29.4122 27.7988C29.2648 27.9147 29.1471 28.0641 29.069 28.2347C28.991 28.4052 28.9548 28.5919 28.9634 28.7793C28.9632 28.9445 29.0017 29.1075 29.0757 29.2552C29.1497 29.4029 29.2572 29.5313 29.3897 29.63C29.828 29.9325 30.3201 30.1484 30.8395 30.2659C31.3986 30.408 31.9371 30.6215 32.4417 30.9011C32.7898 31.0965 33.0843 31.3745 33.2994 31.7107C33.4915 32.0409 33.5882 32.4179 33.5788 32.7998C33.5878 33.1094 33.5216 33.4166 33.386 33.6951C33.2505 33.9736 33.0495 34.2152 32.8003 34.3992C32.193 34.8267 31.46 35.0382 30.7184 35.0001C30.1747 35.0043 29.6363 34.8938 29.1384 34.6757C28.6868 34.489 28.2955 34.1816 28.0072 33.7871C27.8696 33.5935 27.7653 33.3783 27.6984 33.1504C27.6784 33.074 27.6762 32.9939 27.6921 32.9165C27.708 32.8391 27.7415 32.7664 27.7901 32.7041C27.8387 32.6418 27.901 32.5915 27.9722 32.5572C28.0434 32.5229 28.1215 32.5055 28.2005 32.5063H28.2679C28.3808 32.5091 28.4894 32.5502 28.5758 32.6229C28.6622 32.6956 28.7214 32.7956 28.7435 32.9063C28.8166 33.2158 28.9951 33.4903 29.2484 33.6826C29.6753 33.9891 30.1936 34.1412 30.7184 34.1143C31.183 34.1446 31.6447 34.0217 32.0328 33.7646C32.1806 33.6546 32.2995 33.5103 32.3791 33.3442C32.4588 33.1781 32.4968 32.9952 32.49 32.8111C32.4992 32.6329 32.4656 32.4552 32.392 32.2927C32.3184 32.1302 32.2069 31.9877 32.0669 31.8772C31.5964 31.5736 31.0772 31.3532 30.532 31.2257Z" fill="#BAE7D2"/>
<path d="M30.7437 25.3139H30.7437C30.4381 25.3139 30.1904 25.5617 30.1904 25.8673V26.8995C30.1904 27.2051 30.4381 27.4528 30.7437 27.4528H30.7437C31.0493 27.4528 31.297 27.2051 31.297 26.8995V25.8673C31.297 25.5617 31.0493 25.3139 30.7437 25.3139Z" fill="#BAE7D2"/>
<path d="M30.7437 34.1171H30.7437C30.4381 34.1171 30.1904 34.3649 30.1904 34.6705V35.7027C30.1904 36.0083 30.4381 36.256 30.7437 36.256H30.7437C31.0493 36.256 31.297 36.0083 31.297 35.7027V34.6705C31.297 34.3649 31.0493 34.1171 30.7437 34.1171Z" fill="#BAE7D2"/>
<path d="M17.9644 12.7484C17.9644 12.7484 18.0013 15.0413 17.9644 16.936C17.9644 18.812 15.0678 19.8585 13.5621 17.6972L16.6652 22.1511" stroke="#DBCAFF" stroke-width="0.806854" stroke-linecap="round" stroke-linejoin="round"/>
<path d="M13.5621 12.619H19.8028" stroke="#DBCAFF" stroke-width="0.806854" stroke-linecap="round" stroke-linejoin="round"/>
<path d="M13.5621 15.4184H19.8028" stroke="#DBCAFF" stroke-width="0.806854" stroke-linecap="round" stroke-linejoin="round"/>
<path d="M32.0035 5.69762L29.169 6.402L30.602 9.07108" stroke="#BAE7D2" stroke-width="0.806854" stroke-linecap="round" stroke-linejoin="round"/>
<path d="M16.2844 38.0484L17.7907 40.5513L14.8901 41.4243" stroke="#DCCBFF" stroke-width="0.806854" stroke-linecap="round" stroke-linejoin="round"/>
<path d="M17.6734 40.5569C14.9865 39.6357 12.5548 38.0938 10.5755 36.0565C8.59623 34.0193 7.12528 31.5439 6.28207 28.8316" stroke="#DCCBFF" stroke-width="0.806854" stroke-linecap="round" stroke-linejoin="round"/>
<path d="M29.169 6.39015C31.8116 7.26913 34.2153 8.74715 36.1922 10.7088C38.1691 12.6704 39.6658 15.0625 40.5653 17.6982" stroke="#BAE7D2" stroke-width="0.806854" stroke-linecap="round" stroke-linejoin="round"/>
</g>
<defs>
<clipPath id="clip0_7801_24071">
<rect width="39" height="39" fill="white" transform="translate(4 4)"/>
</clipPath>
</defs>
</svg>
