<svg width="48" height="48" viewBox="0 0 48 48" fill="none" xmlns="http://www.w3.org/2000/svg">
<path d="M30.1885 19.2706C29.6168 17.7845 28.6829 16.4646 27.4717 15.4308C26.2605 14.3971 24.8104 13.6821 23.2528 13.3509C21.6953 13.0196 20.0797 13.0825 18.5527 13.534C17.0256 13.9854 15.6355 14.811 14.5084 15.9358L8.76333 21.6805C6.97395 23.4746 5.9698 25.9055 5.97144 28.4394C5.97308 30.9732 6.98037 33.4029 8.77207 35.1946C10.5638 36.9863 12.9934 37.9937 15.5272 37.9953C18.0611 37.997 20.492 36.9929 22.2861 35.2036L28.0311 29.4585C28.9526 28.5377 29.6749 27.4369 30.1532 26.2252C31.0325 23.9927 31.0451 21.512 30.1885 19.2706ZM23.9848 25.4124L23.2056 26.1915L18.2398 31.1574C17.5195 31.8763 16.5431 32.2799 15.5254 32.2794C14.5076 32.2789 13.5317 31.8743 12.812 31.1546C12.0924 30.4349 11.6879 29.459 11.6874 28.4412C11.687 27.4235 12.0906 26.4472 12.8096 25.7268L17.8075 20.729L18.5546 19.9818C19.273 19.2631 20.2471 18.8587 21.2633 18.8571C22.2795 18.8556 23.2548 19.257 23.9754 19.9735L23.9848 19.9821C23.9985 19.9958 24.0073 20.0122 24.0207 20.026C24.7225 20.749 25.112 21.7189 25.1053 22.7265C25.0986 23.7341 24.6962 24.6987 23.9848 25.4124Z" fill="#FFD57F"/>
<path d="M39.2325 4.79581C37.4378 3.00545 35.0062 2 32.4712 2C29.9362 2 27.5047 3.00545 25.71 4.79581L19.965 10.5411C19.0435 11.462 18.3212 12.5625 17.843 13.7743C16.9636 16.0068 16.951 18.4875 17.8076 20.7289C18.3793 22.215 19.3132 23.5349 20.5244 24.5687C21.7356 25.6025 23.1858 26.3175 24.7433 26.6487C26.3009 26.9799 27.9165 26.917 29.4435 26.4656C30.9706 26.0141 32.3607 25.1885 33.4878 24.0636L39.2328 18.3189C41.026 16.5256 42.0333 14.0934 42.0333 11.5573C42.0332 9.02124 41.0257 6.58907 39.2325 4.79581ZM35.1865 14.2727L30.1885 19.2706L29.4415 20.0177C28.7231 20.7363 27.749 21.1408 26.7328 21.1424C25.7166 21.1439 24.7413 20.7424 24.0207 20.0259L24.0112 20.0173C23.9976 20.0037 23.9888 19.9873 23.9754 19.9734C23.2736 19.2504 22.8841 18.2806 22.8908 17.273C22.8975 16.2654 23.2999 15.3008 24.0112 14.5872L24.7904 13.808L29.7562 8.84217C30.4765 8.12295 31.453 7.71917 32.4709 7.71958C33.4888 7.71998 34.4648 8.12453 35.1846 8.84431C35.9043 9.56409 36.3088 10.5402 36.3092 11.5581C36.3095 12.576 35.9057 13.5524 35.1865 14.2727Z" fill="#FF80B7"/>
<path d="M23.9754 19.9735L23.9849 19.9821C23.9986 19.9958 24.0073 20.0121 24.0207 20.026C24.7413 20.7425 25.7166 21.144 26.7328 21.1424C27.749 21.1409 28.7231 20.7364 29.4415 20.0177L30.1886 19.2706C29.7179 18.0348 28.9948 16.9108 28.0654 15.9702C27.1359 15.0297 26.0205 14.2932 24.7905 13.808L24.0113 14.5871C23.2999 15.3008 22.8975 16.2654 22.8908 17.273C22.8841 18.2806 23.2736 19.2505 23.9754 19.9735Z" fill="#FFD57F"/>
<path d="M23.2057 26.1915L18.2399 31.1573C17.5194 31.8761 16.5432 32.2794 15.5256 32.2788C14.5079 32.2782 13.5321 31.8737 12.8126 31.1541C12.093 30.4345 11.6885 29.4587 11.688 28.441C11.6874 27.4234 12.0909 26.4472 12.8096 25.7268L17.8076 20.7289C16.951 18.4875 16.9636 16.0069 17.843 13.7744C16.5919 14.2525 15.4556 14.989 14.5084 15.9358L8.76335 21.6806C6.97307 23.4744 5.96816 25.9056 5.96941 28.44C5.97066 30.9744 6.97797 33.4046 8.77002 35.1967C10.5621 36.9888 12.9923 37.9961 15.5266 37.9975C18.061 37.9988 20.4922 36.9939 22.2861 35.2037L28.0311 29.4586C28.9526 28.5377 29.6749 27.4369 30.1532 26.2252C27.9157 27.0891 25.4347 27.077 23.2057 26.1915Z" fill="#FFD57F"/>
<path d="M39.2325 4.79589C37.4378 3.00552 35.0063 2.00006 32.4712 2.00006C29.9362 2.00006 27.5047 3.00552 25.71 4.79589L19.965 10.5412C19.0435 11.4621 18.3212 12.5626 17.843 13.7744C20.0804 12.9105 22.5615 12.9225 24.7905 13.808L29.7563 8.8422C30.1127 8.48498 30.536 8.20151 31.0021 8.00802C31.4682 7.81452 31.9678 7.71478 32.4724 7.71451C32.977 7.71424 33.4768 7.81343 33.943 8.00643C34.4093 8.19942 34.8329 8.48242 35.1898 8.83926C35.5466 9.19609 35.8295 9.61976 36.0225 10.086C36.2155 10.5523 36.3146 11.052 36.3143 11.5567C36.314 12.0613 36.2143 12.5609 36.0208 13.027C35.8272 13.493 35.5437 13.9163 35.1865 14.2727L30.1886 19.2707C31.0452 21.512 31.0325 23.9927 30.1532 26.2252C31.4043 25.7471 32.5405 25.0106 33.4878 24.0638L39.2328 18.319C41.026 16.5257 42.0333 14.0935 42.0333 11.5574C42.0332 9.02135 41.0257 6.58915 39.2325 4.79589Z" fill="#FF80B7"/>
<path d="M23.9754 19.9735C23.2548 19.257 22.2795 18.8555 21.2633 18.8571C20.2471 18.8586 19.273 19.2631 18.5546 19.9818L17.8076 20.7289C18.2782 21.9646 19.0013 23.0887 19.9308 24.0292C20.8602 24.9698 21.9756 25.7062 23.2057 26.1915L23.9849 25.4123C24.6962 24.6987 25.0986 23.7341 25.1054 22.7265C25.1121 21.7189 24.7225 20.749 24.0207 20.026L24.0113 20.0174C23.9976 20.0037 23.9888 19.9873 23.9754 19.9735Z" fill="#FF80B7"/>
<path d="M30.1886 19.2706L29.4415 20.0177C28.7231 20.7364 27.749 21.1409 26.7328 21.1424C25.7166 21.144 24.7413 20.7425 24.0207 20.0259C24.7225 20.749 25.1121 21.7189 25.1054 22.7265C25.0987 23.7341 24.6962 24.6987 23.9849 25.4123L23.2057 26.1914C25.4347 27.077 27.9157 27.089 30.1532 26.2251C31.0325 23.9926 31.0452 21.5119 30.1886 19.2706Z" fill="#EB66A1"/>
</svg>
