<svg width="48" height="48" viewBox="0 0 48 48" fill="none" xmlns="http://www.w3.org/2000/svg">
<g clip-path="url(#clip0_7801_23966)">
<g clip-path="url(#clip1_7801_23966)">
<path d="M21.613 21.3442V10.662C21.613 10.2046 21.7947 9.76587 22.1182 9.44241C22.4416 9.11894 22.8803 8.93721 23.3378 8.93721H24.8183V1.72698C24.8184 1.49796 24.7728 1.27122 24.6843 1.06C24.5957 0.848781 24.466 0.657306 24.3027 0.496748C24.1394 0.33619 23.9457 0.209763 23.7331 0.124844C23.5204 0.039925 23.2929 -0.0017854 23.0639 0.0021463H8.72485C8.26739 0.0021463 7.82868 0.183869 7.50521 0.507338C7.18174 0.830806 7.00002 1.26952 7.00002 1.72698V27.7697C6.99904 27.9968 7.04294 28.2219 7.12918 28.432C7.21542 28.6422 7.34232 28.8332 7.50258 28.9941C7.66284 29.1551 7.85332 29.2828 8.06307 29.3699C8.27282 29.4571 8.49771 29.5019 8.72485 29.5019H23.0639C23.5188 29.4961 23.9529 29.3108 24.2718 28.9863C24.5907 28.6619 24.7685 28.2246 24.7665 27.7697V23.0764H23.286C22.8369 23.061 22.4114 22.8718 22.0992 22.5486C21.7871 22.2253 21.6127 21.7935 21.613 21.3442Z" fill="#A065FE"/>
<path d="M40.3113 8.93744H24.7656V23.0766H40.3113C40.7636 23.0688 41.1943 22.8822 41.5092 22.5575C41.8242 22.2329 41.9977 21.7967 41.9917 21.3444V10.6623C41.9947 10.4387 41.9535 10.2167 41.8707 10.009C41.7878 9.8013 41.6648 9.61196 41.5088 9.45179C41.3527 9.29162 41.1667 9.16376 40.9612 9.0755C40.7557 8.98725 40.5349 8.94034 40.3113 8.93744Z" fill="#FF85BF"/>
<path d="M21.7527 8.93695C19.754 8.93695 18.1772 8.70747 18.1328 10.6618V21.3439C18.1328 23.313 19.754 23.0761 21.7527 23.0761H24.773V8.93695H21.7527Z" fill="#E768A2"/>
<path d="M18.1266 12.4955L18.125 13.2358L24.7874 13.2497L24.789 12.5095L18.1266 12.4955Z" fill="#FF85BF"/>
<path d="M41.9617 12.6533H24.7578V13.3936H41.9617V12.6533Z" fill="#E768A2"/>
<path d="M24.7887 4.18481H7V4.92509H24.7887V4.18481Z" fill="#7D47E5"/>
</g>
</g>
<defs>
<clipPath id="clip0_7801_23966">
<rect width="48" height="48" fill="white"/>
</clipPath>
<clipPath id="clip1_7801_23966">
<rect width="35" height="29.4998" fill="white" transform="translate(7 -6.10352e-05)"/>
</clipPath>
</defs>
</svg>
