<svg width="49" height="48" viewBox="0 0 49 48" fill="none" xmlns="http://www.w3.org/2000/svg">
<g clip-path="url(#clip0_7801_24050)">
<path d="M34.8953 12.7253L37.9586 1.75582C38.0098 1.57228 38.0116 1.37824 37.9637 1.19378C37.9158 1.00933 37.82 0.841163 37.6863 0.706701C37.5525 0.572239 37.3856 0.476368 37.2028 0.429014C37.0201 0.381661 36.8281 0.384546 36.6468 0.437372L8.14496 8.52135C7.94417 8.57767 7.76447 8.69305 7.6287 8.85283C7.49293 9.01262 7.40721 9.20959 7.38245 9.41873C7.35768 9.62787 7.39499 9.83973 7.48962 10.0274C7.58425 10.215 7.73193 10.37 7.9139 10.4727L20.5102 17.63C20.6805 17.7232 20.8204 17.8646 20.9127 18.0368L27.9934 30.7693C28.0918 30.9608 28.2455 31.1176 28.4342 31.2186C28.6229 31.3197 28.8376 31.3602 29.0497 31.3348C29.2617 31.3095 29.4611 31.2194 29.6213 31.0767C29.7814 30.9339 29.8948 30.7452 29.9462 30.5357L33.2704 18.5792L34.8953 12.7253Z" fill="#A065FE"/>
<path d="M40.1935 13.1068L34.35 14.7643L32.0469 22.9989L35.5574 29.3124C35.6184 29.4272 35.7121 29.5207 35.8264 29.5808C35.9407 29.6409 36.0703 29.6648 36.1983 29.6494C36.3262 29.6339 36.4466 29.5798 36.5437 29.4942C36.6408 29.4085 36.7101 29.2953 36.7425 29.1693L40.9761 13.9431C41.0121 13.831 41.0176 13.7112 40.992 13.5963C40.9663 13.4814 40.9106 13.3756 40.8305 13.29C40.7504 13.2044 40.6489 13.1422 40.5368 13.11C40.4247 13.0777 40.3061 13.0766 40.1935 13.1068Z" fill="#5AD6A0"/>
<path d="M25.1168 17.3792C24.9926 17.4138 24.8813 17.4851 24.7973 17.5839C24.7133 17.6826 24.6603 17.8045 24.6451 17.9338C24.63 18.0632 24.6532 18.1942 24.712 18.3101C24.7708 18.426 24.8624 18.5216 24.9752 18.5847L31.5938 22.3517C31.6967 22.4104 31.7817 22.4963 31.8398 22.6003L32.0485 22.977L34.3292 14.7725L25.1168 17.3792Z" fill="#7D47E5"/>
<path d="M21.043 17.9709C20.9946 17.9729 20.9463 17.9646 20.9014 17.9464C20.8564 17.9282 20.8158 17.9006 20.7821 17.8654C20.7472 17.8304 20.7195 17.7887 20.7005 17.7428C20.6816 17.6969 20.6719 17.6477 20.6719 17.5979C20.6719 17.5482 20.6816 17.499 20.7005 17.4531C20.7195 17.4072 20.7472 17.3655 20.7821 17.3305L37.12 0.748146C37.1546 0.712838 37.1959 0.684814 37.2413 0.66569C37.2867 0.646565 37.3354 0.636719 37.3846 0.636719C37.4338 0.636719 37.4825 0.646565 37.5279 0.66569C37.5733 0.684814 37.6145 0.712838 37.6492 0.748146C37.7179 0.819832 37.7564 0.915757 37.7564 1.0156C37.7564 1.11545 37.7179 1.21137 37.6492 1.28306L21.3038 17.8579C21.2709 17.8944 21.2305 17.9234 21.1855 17.9429C21.1405 17.9624 21.0919 17.972 21.043 17.9709Z" fill="#7D47E5"/>
</g>
<defs>
<clipPath id="clip0_7801_24050">
<rect width="33.6" height="30.912" fill="white" transform="translate(7.39844 0.399414)"/>
</clipPath>
</defs>
</svg>
