<svg width="48" height="48" viewBox="0 0 48 48" fill="none" xmlns="http://www.w3.org/2000/svg">
<g clip-path="url(#clip0_7749_21019)">
<path d="M37.5049 29.8017V45.9799H21.1642V24.6465H32.2606C33.6514 24.6465 34.9854 25.1896 35.9689 26.1564C36.9524 27.1232 37.5049 28.4344 37.5049 29.8017Z" fill="#FFDD7F"/>
<path d="M29.2707 35.3535C29.2712 36.3945 29.0631 37.4255 28.6581 38.3875C28.2532 39.3494 27.6595 40.2236 26.9109 40.96C26.1622 41.6963 25.2733 42.2805 24.295 42.6792C23.3166 43.0778 22.2679 43.283 21.2088 43.2832H21.1642V27.4287H21.2088C23.347 27.4287 25.3975 28.2637 26.9094 29.7498C28.4213 31.236 29.2707 33.2517 29.2707 35.3535Z" fill="#FFBE0C"/>
<path d="M31.1813 3.00012H11.5213C10.9573 3.00012 10.5 3.44959 10.5 4.00405V36.6316C10.5 37.186 10.9573 37.6355 11.5213 37.6355H31.1813C31.7453 37.6355 32.2026 37.186 32.2026 36.6316V4.00405C32.2026 3.44959 31.7453 3.00012 31.1813 3.00012Z" fill="#A065FE"/>
<path fill-rule="evenodd" clip-rule="evenodd" d="M32.2027 24.6499H21.1642V37.6393H31.1814C31.7454 37.6393 32.2027 37.1898 32.2027 36.6354V24.6499Z" fill="#7D47E5"/>
<path fill-rule="evenodd" clip-rule="evenodd" d="M28.9304 37.6354C29.156 36.8965 29.2711 36.1278 29.2707 35.3535C29.2707 33.2517 28.4213 31.236 26.9094 29.7498C25.3975 28.2637 23.347 27.4287 21.2088 27.4287H21.1642V37.6354H28.9304Z" fill="#7D47E5"/>
<path d="M30.2215 38.2006L19.9102 28.2605C19.5304 27.8946 19.2282 27.4582 19.021 26.9767C18.8138 26.4952 18.7058 25.9781 18.7032 25.4553C18.7006 24.9325 18.8034 24.4144 19.0058 23.9309C19.2081 23.4474 19.506 23.0082 19.8821 22.6386C20.6304 21.9036 21.6429 21.4877 22.7007 21.4806C23.7585 21.4736 24.7766 21.876 25.535 22.6009L32.2002 29.1026V17.24L36.5765 23.33C37.1765 24.1892 37.4979 25.2068 37.4982 26.2489V38.2006H30.2215Z" fill="#FFDD7F"/>
<path d="M32.2026 6.0134H10.5V6.51536H32.2026V6.0134Z" fill="#7D47E5"/>
<path d="M16.6642 12.3448V13.7044C17.4802 13.7044 18.2883 13.8626 19.0423 14.1699C19.7963 14.4772 20.4814 14.9277 21.0584 15.4955C21.6355 16.0634 22.0932 16.7375 22.4055 17.4794C22.7178 18.2214 22.8786 19.0166 22.8786 19.8196H24.2684C24.2662 17.8364 23.4641 15.9352 22.0383 14.5336C20.6125 13.132 18.6795 12.3448 16.6642 12.3448ZM16.6642 15.064V16.4237C17.5793 16.4241 18.4568 16.782 19.1039 17.4188C19.751 18.0556 20.1147 18.9191 20.1152 19.8196H21.4969C21.4973 19.195 21.3726 18.5764 21.1299 17.9992C20.8872 17.4221 20.5312 16.8977 20.0824 16.456C19.6335 16.0143 19.1006 15.664 18.5141 15.4252C17.9275 15.1863 17.2989 15.0636 16.6642 15.064Z" fill="#E3D2FF"/>
<path d="M27.12 19.8204H25.6774C25.6748 17.4714 24.7244 15.2194 23.0346 13.5584C21.3449 11.8974 19.0538 10.9631 16.6642 10.9605V9.54251C19.4363 9.54549 22.094 10.6293 24.0542 12.5561C26.0144 14.483 27.1169 17.0955 27.12 19.8204Z" fill="#E3D2FF"/>
</g>
<defs>
<clipPath id="clip0_7749_21019">
<rect width="27.0006" height="42.9805" fill="white" transform="translate(10.5001 3.00003)"/>
</clipPath>
</defs>
</svg>
