<svg width="48" height="48" viewBox="0 0 48 48" fill="none" xmlns="http://www.w3.org/2000/svg">
<g clip-path="url(#clip0_9001_22978)">
<path d="M33.5952 18.2231V7.01051C33.5952 6.38181 33.3486 5.77885 32.9096 5.33429C32.4706 4.88974 31.8753 4.63998 31.2545 4.63998H7.62077C6.99997 4.63998 6.40459 4.88974 5.96562 5.33429C5.52664 5.77885 5.28003 6.38181 5.28003 7.01051V22.095C5.28003 22.7237 5.52664 23.3266 5.96562 23.7712C6.40459 24.2157 6.99997 24.4655 7.62077 24.4655H26.8929C27.2862 22.8759 28.1304 21.4377 29.3215 20.3284C30.5125 19.2191 31.9982 18.4872 33.5952 18.2231V18.2231Z" fill="#FF85BF"/>
<path d="M33.5951 8.96228H5.27991V9.75246H33.5951V8.96228Z" fill="#E768A2"/>
<path d="M34.9292 18.1125C34.4851 18.1173 34.0418 18.1542 33.6028 18.2231V22.095C33.6028 22.7237 33.3562 23.3266 32.9172 23.7712C32.4783 24.2158 31.8829 24.4655 31.2621 24.4655H26.8927C26.4684 26.1586 26.5769 27.9437 27.203 29.5713C27.8292 31.1989 28.9417 32.5878 30.3851 33.544C31.8286 34.5002 33.531 34.9759 35.2544 34.9046C36.9778 34.8334 38.6361 34.2188 39.9979 33.1466C41.3596 32.0745 42.3566 30.5984 42.8497 28.9245C43.3428 27.2506 43.3072 25.4625 42.7481 23.8101C42.189 22.1576 41.1341 20.7233 39.7309 19.7075C38.3277 18.6917 36.6463 18.1451 34.9214 18.1441L34.9292 18.1125Z" fill="#FFDD7F"/>
<path d="M33.5951 22.095V18.2231C32.0001 18.4861 30.5158 19.2156 29.325 20.3219C28.1341 21.4282 27.2887 22.863 26.8928 24.4497H31.2699C31.8854 24.4456 32.4744 24.1961 32.9095 23.7554C33.3447 23.3147 33.591 22.7182 33.5951 22.095Z" fill="#E768A2"/>
<path d="M39.0101 29.9651C38.9481 29.9655 38.8868 29.952 38.8306 29.9256L35.1946 27.7606C35.1378 27.7283 35.0905 27.6812 35.0576 27.6243C35.0247 27.5674 35.0074 27.5026 35.0074 27.4366V21.8105C35.0094 21.7106 35.0495 21.6153 35.1193 21.5446C35.1891 21.4739 35.2832 21.4333 35.3819 21.4313C35.4812 21.4313 35.5765 21.4712 35.6467 21.5423C35.717 21.6135 35.7564 21.71 35.7564 21.8105V27.2074L39.2129 29.2619C39.297 29.3129 39.358 29.3953 39.3828 29.4913C39.4076 29.5873 39.3942 29.6893 39.3456 29.7755C39.3124 29.8354 39.2635 29.8849 39.2043 29.9184C39.1451 29.9519 39.0778 29.9681 39.0101 29.9651V29.9651Z" fill="#FFBE0C"/>
<path d="M21.2203 16.0501H9.26695C9.16349 16.0501 9.06426 16.0085 8.9911 15.9344C8.91793 15.8603 8.87683 15.7598 8.87683 15.655C8.87883 15.5509 8.92057 15.4515 8.99331 15.3779C9.06604 15.3042 9.16411 15.2619 9.26695 15.2599H21.2203C21.3238 15.2599 21.423 15.3015 21.4962 15.3756C21.5694 15.4497 21.6105 15.5502 21.6105 15.655C21.6105 15.7598 21.5694 15.8603 21.4962 15.9344C21.423 16.0085 21.3238 16.0501 21.2203 16.0501Z" fill="#FFE1F0"/>
<path d="M18.4583 19.4319H9.26695C9.16411 19.4299 9.06604 19.3876 8.99331 19.3139C8.92057 19.2403 8.87883 19.141 8.87683 19.0368C8.87683 18.932 8.91793 18.8315 8.9911 18.7574C9.06426 18.6834 9.16349 18.6417 9.26695 18.6417H18.4583C18.5617 18.6417 18.661 18.6834 18.7341 18.7574C18.8073 18.8315 18.8484 18.932 18.8484 19.0368C18.8484 19.1416 18.8073 19.2421 18.7341 19.3162C18.661 19.3903 18.5617 19.4319 18.4583 19.4319Z" fill="#FFE1F0"/>
</g>
<defs>
<clipPath id="clip0_9001_22978">
<rect width="37.92" height="30.24" fill="white" transform="translate(5.28003 4.63998)"/>
</clipPath>
</defs>
</svg>
