<svg width="48" height="48" viewBox="0 0 48 48" fill="none" xmlns="http://www.w3.org/2000/svg">
<g clip-path="url(#clip0_7801_24058)">
<g clip-path="url(#clip1_7801_24058)">
<path d="M29.5173 -0.400391H2.40625V26.2576H29.5173V-0.400391Z" fill="#BCE9D4"/>
<path d="M32.8298 2.75391H5.71875V29.4119H32.8298V2.75391Z" fill="#06BB6E"/>
<path d="M9.26562 6.39062V33.0486H26.4086H28.882H36.3767V23.7167V22.4133V6.39062H9.26562Z" fill="#5AD09A"/>
<path d="M45.6388 30.9084C45.4169 30.6849 45.1794 30.4775 44.9281 30.2878C44.655 30.0581 44.3571 29.8533 44.0871 29.6174C43.929 29.4949 43.8102 29.3289 43.7452 29.1398C43.6801 28.9508 43.6717 28.7468 43.7209 28.553C43.7767 28.3171 43.8357 28.0813 43.8947 27.8516C44.0196 27.4582 44.1232 27.0583 44.205 26.6537C44.2981 26.0641 44.0343 25.7227 43.4385 25.6513C43.0164 25.5986 42.585 25.6017 42.1568 25.5893C41.0489 25.5613 40.7851 25.372 40.4189 24.3293C40.2924 23.9415 40.1464 23.5603 39.9813 23.1873C39.7672 22.7155 39.4879 22.5107 39.131 22.5666C38.9393 22.5932 38.7553 22.6598 38.591 22.7621C38.2434 22.9669 37.9145 23.2121 37.5793 23.4386C37.2815 23.6785 36.9202 23.8263 36.5397 23.8638C36.4536 23.8618 36.3682 23.8493 36.2852 23.8266V33.1584H28.7812C28.8415 33.203 28.8985 33.2517 28.9519 33.3042C29.145 33.4842 29.2782 33.719 29.3337 33.9771C29.3892 34.2351 29.3642 34.5039 29.2623 34.7473C29.1041 35.2033 28.9746 35.6686 28.8744 36.1407C28.845 36.2762 28.8345 36.4151 28.8433 36.5535C28.8681 37.019 29.1537 37.2704 29.7743 37.32C30.3267 37.3728 30.8884 37.3728 31.447 37.4038C31.6634 37.4046 31.8743 37.4724 32.0504 37.598C32.2266 37.7237 32.3595 37.9008 32.4308 38.1052C32.5984 38.5055 32.7411 38.9244 32.8932 39.3248C32.9973 39.5862 33.1251 39.8376 33.2749 40.0758C33.3555 40.2166 33.4857 40.3224 33.6401 40.3723C33.7945 40.4222 33.9619 40.4128 34.1097 40.3458C34.3614 40.2432 34.6026 40.1164 34.8297 39.9672C35.2269 39.722 35.6056 39.452 36.0121 39.2131C36.1697 39.1171 36.3506 39.0664 36.535 39.0664C36.7195 39.0664 36.9004 39.1171 37.0579 39.2131C37.3683 39.3962 37.6786 39.6165 37.9889 39.812C38.2593 39.9955 38.5424 40.1594 38.8362 40.3023C38.9719 40.3727 39.1242 40.4049 39.2768 40.3954H39.3234C39.3532 40.3919 39.3824 40.3846 39.4103 40.3737C39.5928 40.3078 39.7451 40.1776 39.8386 40.0075C39.9704 39.7786 40.0845 39.54 40.1799 39.2937C40.3444 38.8841 40.4903 38.4589 40.6547 38.0524C40.729 37.872 40.8543 37.7171 41.0153 37.6069C41.1762 37.4966 41.3659 37.4358 41.5609 37.4317C41.9364 37.4007 42.3119 37.4038 42.6812 37.379C42.9936 37.3708 43.3048 37.3386 43.6122 37.2828C43.7294 37.2634 43.8395 37.214 43.9319 37.1395C44.0243 37.065 44.096 36.9679 44.1398 36.8576C44.1837 36.7448 44.2058 36.6248 44.205 36.5038C44.2073 36.3713 44.1937 36.239 44.1647 36.1097C44.0281 35.6132 43.8947 35.1197 43.755 34.6232C43.6694 34.3784 43.6665 34.1122 43.7467 33.8656C43.8268 33.619 43.9856 33.4054 44.1988 33.2577C44.4315 33.0808 44.6612 32.9132 44.8784 32.7301C45.1443 32.5258 45.3953 32.3028 45.6294 32.0629C45.7115 31.9911 45.7774 31.9027 45.8228 31.8035C45.8683 31.7044 45.8922 31.5968 45.8931 31.4878C45.894 31.3787 45.8718 31.2707 45.8279 31.1709C45.7841 31.071 45.7196 30.9816 45.6388 30.9084Z" fill="#9A65F8"/>
<path d="M36.279 23.823C35.9947 23.7324 35.7265 23.5972 35.4845 23.4226C35.0936 23.1405 34.6852 22.8834 34.2618 22.653C34.1713 22.5926 34.0684 22.5532 33.9608 22.5377C33.8531 22.5222 33.7433 22.531 33.6394 22.5634C33.5356 22.5959 33.4403 22.6511 33.3606 22.7252C33.2809 22.7992 33.2187 22.8901 33.1787 22.9913C33.0344 23.2763 32.9069 23.5696 32.797 23.8695C32.6542 24.2202 32.5332 24.5833 32.3749 24.9278C32.3132 25.0853 32.2088 25.2225 32.0734 25.3239C31.938 25.4254 31.7769 25.487 31.6084 25.5019C31.2422 25.5391 30.8822 25.5454 30.5129 25.5764C30.1722 25.5823 29.8321 25.6103 29.495 25.6602C29.3919 25.6729 29.2927 25.7073 29.2039 25.7613C29.1152 25.8153 29.0389 25.8875 28.9802 25.9732C28.9215 26.0589 28.8817 26.1561 28.8635 26.2584C28.8452 26.3607 28.8489 26.4656 28.8743 26.5664C28.9209 26.9015 29.0202 27.2336 29.1009 27.5656C29.2064 27.966 29.3119 28.3601 29.4329 28.807C29.3571 29.0266 29.2527 29.2352 29.1226 29.4277C28.8964 29.6624 28.6515 29.8783 28.3902 30.0732C28.0799 30.3276 27.7695 30.548 27.4964 30.8273C27.0713 31.2649 27.093 31.7055 27.512 32.14C27.6373 32.2668 27.7711 32.385 27.9123 32.4938C28.1792 32.7079 28.4523 32.9159 28.7316 33.1145C28.7489 33.1281 28.7655 33.1426 28.7812 33.1579H36.279V23.823Z" fill="#7D47DF"/>
<path d="M33.4219 31.4859L35.3646 33.5559L39.0235 29.6611" stroke="#DDCCFF" stroke-width="0.918597" stroke-linecap="round" stroke-linejoin="round"/>
<path d="M19.1406 19.5229H26.8215" stroke="#BCE9D4" stroke-width="0.999285" stroke-linecap="round" stroke-linejoin="round"/>
<path d="M22.9844 23.3593V15.6815" stroke="#BCE9D4" stroke-width="0.999285" stroke-linecap="round" stroke-linejoin="round"/>
</g>
</g>
<defs>
<clipPath id="clip0_7801_24058">
<rect width="48" height="48" fill="white"/>
</clipPath>
<clipPath id="clip1_7801_24058">
<rect width="43.4782" height="40.8" fill="white" transform="translate(2.39844 -0.399902)"/>
</clipPath>
</defs>
</svg>
